<svg id="圖層_1" data-name="圖層 1" xmlns="http://www.w3.org/2000/svg" viewBox="0 0 304.48 82.54"><defs><style>.cls-1{fill:#fff;}.cls-2,.cls-3{fill:#686564;}.cls-2{stroke:#686564;stroke-miterlimit:10;stroke-width:1.42px;}.cls-4{fill:#666767;}.cls-4,.cls-5{fill-rule:evenodd;}.cls-5{fill:#3f98c1;}</style></defs><path class="cls-1" d="M25.94,43.89V56.07a3.89,3.89,0,0,0,3.82,3.82h30l-2.71-6.53L34.83,81.48c-3.26,4.12-6.75,8.14-9.8,12.41-2.7,3.77-1.5,9.69-1.5,14.16a3.89,3.89,0,0,0,3.83,3.84H79.2A3.89,3.89,0,0,0,83,108.06V95.72a3.88,3.88,0,0,0-3.82-3.83H45.78l2.71,6.53,22.3-28c3.26-4.1,6.78-8.09,9.84-12.35,2.7-3.76,1.49-9.7,1.49-14.16A3.88,3.88,0,0,0,78.3,40.1H29.76c-4.92,0-4.93,7.65,0,7.65H78.3l-3.83-3.86v11l1.12-2.7L43.08,93c-2,2.47-.88,6.53,2.7,6.53H79.2l-3.83-3.83v12.33l3.83-3.83H27.36l3.84,3.83v-11l-1.12,2.7,32.37-41c2-2.48.89-6.54-2.7-6.54h-30L33.58,56V43.89C33.59,39,25.94,39,25.94,43.89Z" transform="translate(-23.26 -40.1)"/><path class="cls-1" d="M91.68,86.67c-.39,6.5,1.86,13.42,8.65,15.63a12.48,12.48,0,0,0,16.52-10.6L113,95.52l12.66.92-3.83-3.83c-.47,4-5,8.22-8.2,10.16-4.59,2.78-10.76,3-15.84,1.54C86.9,101.2,82.88,89.52,85.07,79.14c2.25-10.7,11.67-17.58,22.66-15.25C119,66.29,122,76.42,122.2,86.67L126,82.89H95.51c-4.92,0-4.93,7.65,0,7.65H126a3.87,3.87,0,0,0,3.82-3.83c-.23-14.76-6.52-28.62-22.72-30.59-15.35-1.87-27.77,8.63-29.83,23.67-2,14.7,5.43,29.58,20.86,32.48,13.2,2.47,29.66-4.87,31.4-19.62.26-2.15-2-3.69-3.82-3.82L113,87.89c-2.19-.16-3.66,1.89-3.83,3.83-.41,4.8-7.34,4.26-9.16.89-1-1.89-.83-3.88-.7-5.92C99.64,81.75,92,81.77,91.68,86.67Z" transform="translate(-23.26 -40.1)"/><path class="cls-1" d="M116.13,78.51c-.53-7.11-3.82-13.74-11.83-13.79-8.21,0-12,6.41-12.75,13.79-.21,2.06,1.92,3.82,3.82,3.82h16.94c4.92,0,4.93-7.65,0-7.65H95.37l3.83,3.83c.33-3.21,1.42-6.21,5.1-6.14,3.4.07,4,3.26,4.18,6.14C108.85,83.39,116.5,83.43,116.13,78.51Z" transform="translate(-23.26 -40.1)"/><path class="cls-1" d="M139.2,60.53v8A3.88,3.88,0,0,0,143,72.36h.17a3.82,3.82,0,0,0,3.31-1.89c2.39-4.74,5.59-7.23,11.09-7,4,.19,7.62,1.79,8.88,5.8,1.37,4.33.94,9.23.94,13.74v25l3.83-3.83h-13.8l3.83,3.83V86.68c0-7.76.73-20.06-10.07-20s-11.26,12-11.26,20v21.37l3.83-3.83H130l3.83,3.83V60.53L130,64.36H143c4.92,0,4.93-7.66,0-7.66H130a3.88,3.88,0,0,0-3.78,3.83v47.52a3.89,3.89,0,0,0,3.78,3.84h13.81a3.9,3.9,0,0,0,3.83-3.83c0-3.88-2-34.24,3.6-33.73,3.68.34,2.42,14.54,2.42,17.55v16.17a3.88,3.88,0,0,0,3.82,3.84h13.8a3.9,3.9,0,0,0,3.83-3.83c0-9.78.09-19.57,0-29.35-.09-8.67-1.28-17.8-10.32-21.44a19.11,19.11,0,0,0-24.86,9.35l3.3-1.89H143l3.82,3.82v-8C146.85,55.6,139.2,55.6,139.2,60.53Z" transform="translate(-23.26 -40.1)"/><path class="cls-1" d="M208.27,73.76c-2.55-8-12.6-12.15-20.14-7.61a7.38,7.38,0,0,0-3.42,8.32c1.36,4.61,6.63,5.44,10.66,6.18,5,.93,12.67,1,16,5.63s1.58,11.77-2.49,15.12c-5,4.11-13.07,4.43-19.13,3.22-6.28-1.25-10.47-4.39-12.19-10.64l-2.67,4.71,11.85-1.8L182,94.22c2.46,8.83,13,11.06,20.85,8,3.72-1.44,6.4-4.88,5.28-9-1.32-4.89-6.47-5.54-10.69-6.17-4.78-.72-11.38-1.19-15-4.76-4-3.93-3.81-11.4.56-15,8.57-7,23.88-4.91,28.13,5.71l2.67-4.7-10.27,2.79c-4.75,1.29-2.73,8.68,2,7.38l10.25-2.79c1.83-.5,3.44-2.79,2.67-4.71-3.61-9-10.45-14.32-20.23-15-9.37-.69-21.2,2.49-25,12.07-3.6,9.16.27,19.6,9.45,23.45,5,2.08,10.27,2.34,15.47,3.38a8.49,8.49,0,0,1,2.67.65l-1.43-.15a15.62,15.62,0,0,1-4.67.41c-2.61-.22-4.65-.92-5.39-3.57-.6-2.16-2.65-3-4.71-2.67l-11.85,1.82c-2,.31-3.17,2.9-2.67,4.7,2.8,10.16,10.79,15.36,21,16.51,10,1.14,22.11-1.29,27.29-10.95,4.06-7.58,2.55-18.48-4.78-23.44-4.88-3.29-10.65-3.82-16.29-4.86-1.3-.24-7-.8-3.53-1,3.18-.18,5.94.14,7,3.52C202.38,80.47,209.77,78.47,208.27,73.76Z" transform="translate(-23.26 -40.1)"/><path class="cls-1" d="M244,89.34V75.75l-3.8,3.83h6.64c.69,0,.57-.13-.3,0-3.46.73-3.43,5.27-.91,7,1.45,1,2.31,3.14,3.21,4.62l3.31-5.76h-3.21l3.31,1.9c-2.48-3.77-4.28-7.57-9.37-7.57a3.87,3.87,0,0,0-3.82,3.83v5.67l3.82-3.83H240.2c-4.92,0-4.93,7.66,0,7.66h2.68a3.9,3.9,0,0,0,3.83-3.83v-5.6l-3.83,3.82c.74,0,.57,0-.06-.47a7.51,7.51,0,0,1,.93,1.37c.59.89,1.14,1.81,1.76,2.68,1.72,2.44,4,2.1,6.64,2.1a3.87,3.87,0,0,0,3.8-3.92,3.82,3.82,0,0,0-.5-1.84c-1.71-2.8-3.19-5.48-6-7.37l-.92,7c6.58-1.39,8.88-10.53,2.61-14.06-3-1.71-7.59-1-11-1a3.86,3.86,0,0,0-3.82,3.82V89.34C236.35,94.26,244,94.27,244,89.34Z" transform="translate(-23.26 -40.1)"/><path class="cls-1" d="M242.85,85.32h3.41a6.61,6.61,0,0,0,3.48-1,5.44,5.44,0,0,0,2.35-4.73c-.13-3.36-2.8-5.27-6-5.34h-3.27A3.88,3.88,0,0,0,239,78.08v3.41a3.83,3.83,0,0,0,7.65.39V78.05l-3.8,3.84h3.35a2.16,2.16,0,0,1-.34-4.08c.34-.14,1.38-.19.54-.15h-3.55a3.83,3.83,0,0,0,0,7.65Z" transform="translate(-23.26 -40.1)"/><path class="cls-1" d="M261.84,85.74l-1.54,2,5.23-1.38a4.93,4.93,0,0,1-1.39-1,4,4,0,0,0-5.41,0c-.77.63-3.29.68-.91-.66,1.66-.94,2.59-3.59,1.37-5.24-.32-1-.74-1.07-1.24-.21a.9.9,0,0,0,.4,0c-.76-1.11.79-1.87-.8-.79s-2.68,3.49-1.37,5.24L258,86.2c1.5,2,5.33,2.92,6.61,0a21.43,21.43,0,0,0,.93-2.46l-4.7,2.67,2.3.53-2.67-4.71a6.4,6.4,0,0,1-.76,1.88,3.83,3.83,0,0,0,.6,4.64A18.29,18.29,0,0,0,263.2,91c4.28,2.46,8.13-4.15,3.86-6.61a9.55,9.55,0,0,1-1.32-.94l.6,4.64a13.22,13.22,0,0,0,1.53-3.71,3.86,3.86,0,0,0-2.67-4.71l-2.31-.53a3.91,3.91,0,0,0-4.69,2.67l-.16.63h6.61l-1.87-2.53-1.37,5.23c2.5-1.7,4.38-3.73,4.26-7a6.91,6.91,0,0,0-5.6-6.31c-7.16-1.58-11.76,5.7-7.49,11.49L254,78.07c-4.57,2.56-6.81,8.48-2.85,12.7,3.54,3.78,9.37,3,13,0H258.7a17.79,17.79,0,0,0,2.94,2.16c1.95,1.13,4,.29,5.24-1.37l1.53-2c1.27-1.65.25-4.26-1.37-5.23-2-1.17-4-.26-5.23,1.37Z" transform="translate(-23.26 -40.1)"/><path class="cls-1" d="M255.28,79.81c-3.4,1.85-5,6.51-2.15,9.6a5.81,5.81,0,0,0,4.62,1.83,8.18,8.18,0,0,0,4.76-2.15,3.84,3.84,0,0,0,1.12-2.71,4.4,4.4,0,0,0-1.12-2.7l-2.59-3.27c-1.25-1.58-4.12-1.4-5.41,0a3.93,3.93,0,0,0,0,5.41l2.59,3.27V83.68c.71-.6.12-.11,0,0-.53.36.61-.19.11,0-.28.07-.18.06.29,0l.53.1c-.31-.09-.3-.07,0,0a1.71,1.71,0,0,1,.7.43,1.91,1.91,0,0,1,.34,2.22c.36-.78-.51.47,0,0l-.38.29a2.2,2.2,0,0,1,.47-.27,3.85,3.85,0,0,0-3.88-6.64Z" transform="translate(-23.26 -40.1)"/><path class="cls-1" d="M260.14,83.6A7.81,7.81,0,0,0,263.26,80a4.9,4.9,0,0,0-.55-4.07,5.23,5.23,0,0,0-4.15-2.35c-3.2-.26-6.14,2.83-5.23,6A9.18,9.18,0,0,0,255.51,83a3.85,3.85,0,0,0,5.41,0,3.93,3.93,0,0,0,0-5.41c-.26-.3-.53-.6-.77-.91l.6.78a4.24,4.24,0,0,1-.36-.61l.38.91a1.34,1.34,0,0,1-.07-.27l.14,1a.71.71,0,0,1,0-.29l-.14,1,.05-.15-.39.91a1,1,0,0,1,.17-.28l-.6.78a1.09,1.09,0,0,1,.25-.23l-.78.6.14-.07-.91.38a1.46,1.46,0,0,1,.5-.12l-1,.13a4.68,4.68,0,0,1,.53,0l-1-.13a.74.74,0,0,1,.29.08l-.91-.39a1.28,1.28,0,0,1,.25.15l-.77-.6a1.14,1.14,0,0,1,.22.22l-.6-.78a1.2,1.2,0,0,1,.16.27l-.39-.92a1,1,0,0,1,.08.3l-.13-1a1.5,1.5,0,0,1,0,.3l.14-1a1.38,1.38,0,0,1-.08.27l.39-.91c-.08.13-.16.27-.25.4l.59-.78c-.13.14-.27.28-.41.41l.77-.6-.69.53a4.17,4.17,0,0,0-1.76,2.28A4,4,0,0,0,257.2,84,3.74,3.74,0,0,0,260.14,83.6Z" transform="translate(-23.26 -40.1)"/><path class="cls-1" d="M266.6,79.58h4.32c2.27,0,3,.59,3,3.09,0,2.31-.71,2.82-2.87,2.84H266.6l3.83,3.83V75.75c0-4.92-7.65-4.93-7.65,0V89.34a3.88,3.88,0,0,0,3.82,3.83c2.52,0,5.32.29,7.79-.27,4.8-1.09,7.16-5.59,7.18-10.23s-2.32-9.5-7.3-10.5c-2.45-.5-5.17-.24-7.67-.24C261.68,71.89,261.67,79.58,266.6,79.58Z" transform="translate(-23.26 -40.1)"/><path class="cls-1" d="M265.46,78.05v9a3.87,3.87,0,0,0,3.82,3.84,16.58,16.58,0,0,0,5.06-.39c3.21-1.07,4.31-4.23,4.44-7.32s-.58-6.29-3.26-8c-1.85-1.15-4.15-1-6.24-1-4.92,0-4.93,7.66,0,7.66a12.26,12.26,0,0,0,2.57,0c.35-.08-.11,0-.39-.22a.6.6,0,0,1-.34-.36q-.18-.37-.06,0a8,8,0,0,1,.07,1.83s.06.7,0,.47c.16.5-.34.32.17,0,0,0,1-.57,1-.46a8.34,8.34,0,0,1-1,0h-2L273.13,87V78C273.11,73.13,265.46,73.12,265.46,78.05Z" transform="translate(-23.26 -40.1)"/><path class="cls-1" d="M307.39,60.53v8.91a3.88,3.88,0,0,0,3.81,3.83h.28a3.93,3.93,0,0,0,3.72-2.81c1.53-5,3.6-7.14,8.78-6.83L320.2,59.8V73.61L324,69.79c-12.17.43-15.48,9.6-15.57,20.55v17.71l3.75-3.83H298.44l3.83,3.83V60.53l-3.83,3.83H311.2c4.92,0,4.93-7.66,0-7.66H298.44a3.88,3.88,0,0,0-3.82,3.83v47.52a3.88,3.88,0,0,0,3.82,3.84H312.2a3.9,3.9,0,0,0,3.83-3.83V93.89c0-2-.06-3.91,0-5.86.28-5.87,1.34-10.4,7.88-10.63a3.9,3.9,0,0,0,3.83-3.83V59.8A3.89,3.89,0,0,0,323.91,56c-8.69-.52-13.7,4.33-16.16,12.45l3.69-2.81h-.24L315,69.44V60.53C315,55.6,307.39,55.6,307.39,60.53Z" transform="translate(-23.26 -40.1)"/><path class="cls-1" d="M256.68,42.06a5.83,5.83,0,0,0-4.1-.44,4.66,4.66,0,0,0-2.25,1.27,3.36,3.36,0,0,0-.92,1.42A3.67,3.67,0,0,0,249,46.1a3.76,3.76,0,0,0,.53,1.93,2.93,2.93,0,0,0,1,1.07,3.63,3.63,0,0,0,3.34.69,2,2,0,0,1,.35-.09l-1,.14a11.15,11.15,0,0,0,2-.14,4.62,4.62,0,0,0,3.17-3.29,4,4,0,0,0-.39-3A3.81,3.81,0,0,0,252.81,42h0a4,4,0,0,0-1.75,2.28,1.72,1.72,0,0,1-.07.21l.39-.92-.12.22.6-.77-.1.09.78-.6a.41.41,0,0,1-.11.07l.92-.39-.18.05,1-.14a3.42,3.42,0,0,1-.64,0h-.32a5.24,5.24,0,0,0-1.37.23l4.85,3.69a.67.67,0,0,1,0-.2l-.14,1v-.12l-.38.92a.38.38,0,0,1,.09-.15l-.6.78.08-.08-.77.59a.45.45,0,0,1,.21-.12l-.92.39a1.16,1.16,0,0,1,.45-.12l-1,.13a2.73,2.73,0,0,1,.7,0l-1-.14a1,1,0,0,1,.28.07l-.92-.39h0a4,4,0,0,0,3,.38,3.82,3.82,0,0,0,.92-7Z" transform="translate(-23.26 -40.1)"/><path class="cls-1" d="M251.62,41.89c-.9.29-1.85.39-2.74.74a6.06,6.06,0,0,0-2.35,1.4,4.56,4.56,0,0,0-1.11,4.22,3.73,3.73,0,0,0,2.68,2.64,3.93,3.93,0,0,0,3.72-1c-.61.43-.76.54-.44.34s.17-.11-.5.2a2,2,0,0,0,.46-.13c.35-.09.71-.15,1.06-.25A5.74,5.74,0,0,0,256,47.46a3.83,3.83,0,0,0-6.61-3.86c-.19.33-.08.18.34-.43l.55-.42c-.5.35.94-.3.36-.14l-1,.25a6.5,6.5,0,0,0-3.14,1.62l6.39,1.69a3.26,3.26,0,0,1-.83,3.18l-.61.46a1.11,1.11,0,0,1,.34-.18c-.52.43-.87.33-.35.18l.48-.14c.61-.15,1.23-.26,1.83-.45a3.83,3.83,0,0,0-2-7.38Z" transform="translate(-23.26 -40.1)"/><path class="cls-1" d="M252.48,52.1a33.66,33.66,0,0,0,6.35-1.4,3.9,3.9,0,0,0,2.75-4.2,3.82,3.82,0,0,0-3.76-3.31,17.08,17.08,0,0,0-8.29,1.92,3.82,3.82,0,0,0,3.86,6.6h0q.3-.16.6-.3-.59.23.06,0a12.29,12.29,0,0,1,1.24-.36l.57-.11h.19c.48,0,1.15,0,1.77,0l-1-7.52a33.76,33.76,0,0,1-6.36,1.4c-2,.38-3.18,2.84-2.67,4.71a3.92,3.92,0,0,0,4.71,2.67Z" transform="translate(-23.26 -40.1)"/><path class="cls-1" d="M258.2,51.12h0l-.78.59.15-.08-.91.38h.19l-1,.13a21.65,21.65,0,0,0,2.27-.16,4.26,4.26,0,0,0,3.28-4.19l-.14-1-.38-.91a3.88,3.88,0,0,0-6-.78h0l.77-.6a.6.6,0,0,1-.15.09l.91-.38h-.19l1-.13a15.69,15.69,0,0,0-2.28.17,4.31,4.31,0,0,0-3.27,4.18,3.85,3.85,0,0,0,3.82,3.83,3.92,3.92,0,0,0,3.83-3.83v-.08l-.14,1v-.13l-.38.91a.17.17,0,0,1,.06-.1l-.6.78a.2.2,0,0,1,.08-.08l-.77.6a.21.21,0,0,1,.1-.06l-.91.39a1.1,1.1,0,0,1,.26-.06l-1,.13h1a4.83,4.83,0,0,0,3.28-1.32l-6.53-2.7v.07l.14-1v.13l.38-.92a.54.54,0,0,1-.05.11l.59-.78a.6.6,0,0,1-.08.08l.77-.6a.21.21,0,0,1-.1.06l.91-.39a1.22,1.22,0,0,1-.26.06l1-.13h-1a4.73,4.73,0,0,0-3.27,1.31,3.91,3.91,0,0,0-1.12,2.71,3.82,3.82,0,0,0,3.81,3.83h0A4,4,0,0,0,258.2,51.12Z" transform="translate(-23.26 -40.1)"/><path class="cls-1" d="M234.89,61.46c3.37-3,6.31-6.34,10.31-8.57s1.24-8.11-3-7A18.44,18.44,0,0,0,234,50.8c-2,2.37-4.69,3.7-5.53,6.93-1.24,4.77,6.14,6.8,7.38,2,.17-.65,1.32-1.44,1.92-2a15.7,15.7,0,0,0,2.87-3.22l-2.28,1.76c2-.83,3.79-2.51,5.87-3.06l-3-7c-4.51,2.55-8,6.38-11.82,9.76s1.72,8.65,5.41,5.41Z" transform="translate(-23.26 -40.1)"/><path class="cls-1" d="M241.13,57.89a1,1,0,0,1,.14-.24l-.59.77a1.62,1.62,0,0,1,.32-.32l-.77.6c.35-.26.74-.44,1.09-.7a5.52,5.52,0,0,0,2.31-3.11,3.94,3.94,0,0,0-1-3.73,3.82,3.82,0,0,0-3.72-1c-2.85.77-5.75,3.64-4.79,6.82a4,4,0,0,0,1.76,2.29,3.86,3.86,0,0,0,5.25-1.38,4,4,0,0,0,.38-3,.38.38,0,0,1,0-.15l.13,1v-.16l-.13,1a.84.84,0,0,1,.06-.24l-.38.92a1.52,1.52,0,0,1,.24-.41l-.6.78a2.82,2.82,0,0,1,.56-.53l-.78.6a4.15,4.15,0,0,1,.89-.52l-.91.39a1.79,1.79,0,0,1,.39-.13l-4.7-4.71a.84.84,0,0,1-.1.29l.39-.91c0,.08-.09.16-.14.24l.6-.77c-.1.11-.21.22-.32.32l.78-.6c-.3.23-.64.39-.94.6a5.56,5.56,0,0,0-2,2,3.82,3.82,0,0,0,1.37,5.24,3.89,3.89,0,0,0,3,.38A3.94,3.94,0,0,0,241.13,57.89Z" transform="translate(-23.26 -40.1)"/><path class="cls-1" d="M247.63,53h-.17l1-.14-1.54.2-.28.05a6.24,6.24,0,0,0-1.1.46,3.23,3.23,0,0,0-.92.72,4.28,4.28,0,0,0-.87,1.35,4.46,4.46,0,0,0-.37,1.65,5.5,5.5,0,0,0,.16,1.33,2.71,2.71,0,0,0,.66,1.32,2.89,2.89,0,0,0,1.08,1,4.06,4.06,0,0,0,2.94.38,5.23,5.23,0,0,0,1.77-.75,6.64,6.64,0,0,0,1.93-2,2.9,2.9,0,0,0,.45-1.42,2.94,2.94,0,0,0-.07-1.53A3.84,3.84,0,0,0,247.6,53l-.92.39a3.75,3.75,0,0,0-1.37,1.37l-.09.13.6-.78a2.65,2.65,0,0,1-.37.38l.77-.6a2.18,2.18,0,0,1-.46.28l.91-.38-.47.15,4.71,2.68v-.08l.14,1a1.22,1.22,0,0,1,0-.27l-.14,1a.38.38,0,0,1,0-.15l-.38.91a.11.11,0,0,1,0-.08l-.59.78a.22.22,0,0,1,.09-.1l-.77.59.17-.09-.92.39a1.18,1.18,0,0,1,.37-.09l-1,.14c.58-.08,1.15-.12,1.72-.23a4.32,4.32,0,0,0,2.3-1.76,2.9,2.9,0,0,0,.45-1.42,2.94,2.94,0,0,0-.07-1.53,3.84,3.84,0,0,0-1.76-2.28l-.91-.39a3.77,3.77,0,0,0-2,0Z" transform="translate(-23.26 -40.1)"/><path class="cls-1" d="M231.94,55.65l-.15.2.6-.77a17.06,17.06,0,0,0-1.87,2.45,3.87,3.87,0,0,0,.3,4.25A3.64,3.64,0,0,0,232.35,63a4.08,4.08,0,0,0,2.49.19,5.49,5.49,0,0,0,1.24-.48c.12-.07.24-.14.35-.22a7,7,0,0,0,1.88-1.88,2.39,2.39,0,0,0,.21-.34,6.64,6.64,0,0,0,.48-1.18,4.63,4.63,0,0,0-.45-3.4,4,4,0,0,0-2.29-1.76,3.84,3.84,0,0,0-4.71,2.67,4,4,0,0,0,.39,2.95v.06l-.39-.92a.24.24,0,0,1,0,.12l-.13-1a.74.74,0,0,1,0,.21l.14-1a1.71,1.71,0,0,1-.09.3l.39-.92a3.14,3.14,0,0,1-.28.46l.59-.77a3.11,3.11,0,0,1-.41.4l.78-.59a2.27,2.27,0,0,1-.48.27l.92-.38a1.05,1.05,0,0,1-.24.06l4.32,5.63a3.82,3.82,0,0,1,.4-.64l-.6.77c.54-.68,1.11-1.31,1.62-2a3.9,3.9,0,0,0,.38-3,3.84,3.84,0,0,0-4.66-2.73l-.91.39a3.68,3.68,0,0,0-1.37,1.37Z" transform="translate(-23.26 -40.1)"/><path class="cls-1" d="M230.47,56.24a4.5,4.5,0,0,0-1.23.48,1.9,1.9,0,0,0-.39.23A6.34,6.34,0,0,0,227,59a5,5,0,0,0-.19,5.06,3.83,3.83,0,0,0,3.3,1.9,3.93,3.93,0,0,0,3.3-1.9l1.42-2.12a3.82,3.82,0,0,0-1.36-5.23h0a3.81,3.81,0,0,0-2.95-.38A4.13,4.13,0,0,0,228.2,58c-.47.71-.95,1.41-1.41,2.12h6.6v-.07l.39.92a.9.9,0,0,1-.06-.22l.14,1a1,1,0,0,1,0-.25l-.14,1a1.37,1.37,0,0,1,.11-.36l-.39.91a2.58,2.58,0,0,1,.32-.53l-.6.78a2.22,2.22,0,0,1,.37-.38l-.78.6a1.86,1.86,0,0,1,.43-.25l-.91.38.27-.07a3.77,3.77,0,0,0,.89-6.92h0a4.31,4.31,0,0,0-2.95-.38Z" transform="translate(-23.26 -40.1)"/><path class="cls-1" d="M298.07,80.15c-.67-7.2-2.34-14.2-5.95-20.52-2.73-4.76-6.83-10.42-12.6-11.37a3.86,3.86,0,0,0-3.73,6.39c1.13,1.37,1.87,2.28,3.59,2.81,3.48,1,5.61-2.77,4.32-5.62a4.26,4.26,0,0,0-2.17-2.19L283.29,54l.06-.32L277.73,56l.21.22-1.13-2.71v.36l4.84-3.69h-.21a4,4,0,0,0-4.35,1.76v0l4.32-1.76c-2.5-1-4.75-2.51-7.28-3.51-3.49-1.38-6.65,4-3.72,6.39,3.69,3,7.77,5.33,9.75,9.8L286.77,59c-7.49-10.19-25.86-18.72-37.92-12h3.86l-.27-.2c-3-2.18-6.19,1.4-5.63,4.32A4.42,4.42,0,0,0,249,53.89l-1.79-4.33L247,50l2.68-2.67c-3,1.09-5.91,2.32-8.81,3.62-.76.34-4.78,3.13-4,3.07a3.88,3.88,0,0,0-3.83,3.94,3.82,3.82,0,0,0,.13,1v-1.1L235,55.5c-3.15,2-4.51,5.22-7.13,7.66-3.63,3.31,1.8,8.73,5.37,5.36a4.93,4.93,0,0,0,1.07-1.25c1.8-3.8-2.73-7.8-6-4.63-1.17,1.13-1.46,3-2.58,4l6.39,3.72c.64-1.83.87-3.45-.38-5.07v3.86a23,23,0,0,0,1.64-3c1.81-3.67-3-8.1-6-4.64S223.5,69,221.9,73.07l7.52,1c.28-2.77,1.75-5.25,2.44-7.92a3.87,3.87,0,0,0-5.62-4.32l-.16.1,4.33,1.76-.35-.72c-1.54-3.22-6-1.9-7,.92l-.56,1,7.13,1.93c.07-1.49.91-2.41.71-4-.43-3.25-5.34-5.83-7.13-1.93l-.33.64,6.39,3.72c.06-.31.14-.63.23-.94,1.09-4.16-4.8-6.75-7-2.94-4.3,7.45-5.83,16-5.69,24.5h7.65c-.33-3.28.28-7.77-3.51-9.1-2.37-.83-4.85,1.34-4.84,3.69,0,4-.23,7.68,1.46,11.33v-3.9c-2,4.31,1.39,9.61,3.64,13.27a43.61,43.61,0,0,0,11.37,12l-1.76-2.29c1.11,3.82,6.45,7,10,8.41,4.21,1.63,10.75.94,14.19-2.2,3.7-3.38,4.63-9.14,1.29-13a16.43,16.43,0,0,0-6.1-4.67c-2.84-1.17-4.45-.56-6.66-1.64-2.86-1.4-6.62.93-5.62,4.32a5,5,0,0,0,2.47,3.2L238.5,102v.26l5.7-3.31c-3.14-1.44-5.43-2.78-7.1-5.91-2.12-4-7.9-1.16-7,3l.11.46.38-2.95-.1.24h6.61c-.92-2-2-4-4.47-4l3.69,4.84c.27-1.34-.36-2.16-.34-3.37l-7.52,1a11.71,11.71,0,0,0,1.11,2.38l-.39-3-.24.86a3.82,3.82,0,0,0,1,3.72h0a3.82,3.82,0,0,0,3.72,1A5.38,5.38,0,0,0,236,95.75L230,95a14.49,14.49,0,0,0,3.19,4.07c3.12,2.8,8.38-.77,6-4.64a19.9,19.9,0,0,1-1.37-2.06l-7.13,1.93c2.69,3.83,5.26,6.62,10.12,7.07,4.21.39,4.6-5.14,1.93-7.13a12.89,12.89,0,0,1-3.32-3.1l-5.24,5.23a14.43,14.43,0,0,0,2.55,1.1c3.28,1.08,5.89-2.83,4.33-5.62-1.35-2.4-3.06-4.31-3.62-7.08l-5.62,4.32a9.43,9.43,0,0,0,1.63.62,3.9,3.9,0,0,0,4.71-2.84,4,4,0,0,0,0-1.84,39,39,0,0,1-.72-6.08,40.1,40.1,0,0,0-.79-4c-.06,1.09.93-1.39,1.1-1.8a21.16,21.16,0,0,0,1.35-4l-5.62,2.28a4.3,4.3,0,0,0,5.87-.75c1.18-1.4,1.84-3.41,3-4.92s2.32-2.9,3.43-4.39c1.8-2.45-.66-5.71-3.3-5.76a4.46,4.46,0,0,0-2.73.72L245,57.68l-.16-.2-.6,4.64c1.3-1.59,2.27-3.28,1.46-5.36a3.89,3.89,0,0,0-4.86-2.59,3.82,3.82,0,0,0-1.54.9c-1.12.92-2.22,1.82-3.29,2.81l5.42,5.41a19.6,19.6,0,0,1,11.26-7.4c4.79-1.1,2.76-8.48-2-7.38a4.69,4.69,0,0,0-1.41.47c-2.1.81-3.83,3.41-2.28,5.62,1.23,1.76,2.52,2.19,4.6,2.3l-3.69-4.84v.07l2.68-2.68a17.64,17.64,0,0,0-7,4.27c-3.15,3.09.85,8.09,4.63,6a13.94,13.94,0,0,1,3.56-1.5l-4.71-4.7.59-.9a3.76,3.76,0,0,0-1,3.73l.16.39a4,4,0,0,0,3.69,2.81c1.81-.07,3.69-1.07,5.42-.95l-1-7.52C243,55.48,233.17,61.7,231.45,75.22c-.56,4.46,6.25,4.91,7.52,1,2.49-7.61,6.35-12,13.7-15.11,8-3.41,17.25-1.12,21.88,6.38,4.14,6.7,5.46,15.64,2.1,22.94-3,6.59-8.55,10.88-14.16,15.09-3.14,2.36-1.5,8.62,2.95,7,.49-.17,1-.35,1.46-.55l-3-.38.66.31c1.4.67,3.54.78,4.64-.6l1.05-.76-1.93-7.13a24.72,24.72,0,0,0-5.47,3.89c-2.75,2.58.09,7.56,3.72,6.4,2.88-.93,5-3,7.76-4l-2.95-7c-2.37,1.55-4.62,3.26-7.06,4.71-3.09,1.83-2,7.42,1.94,7.13a18.55,18.55,0,0,0,10.39-4.28l-4.64-6c-3.06,2.7-6.69,4.59-10,6.92-2.82,2-2.18,7.47,1.93,7.13a25,25,0,0,0,5.48-1.54l-3.72-6.4-.26.14c-1.58.71-2.11,2.8-1.76,4.32l.09.43a3.87,3.87,0,0,0,4.79,2.64,4.39,4.39,0,0,0,.84-.35c2.34-1.27,4.77-2.37,7.05-3.76l-4.63-6c-1.38,1.4-3.3,2-4.87,3.16-3.27,2.35-1.47,8.51,2.95,7,3.38-1.16,6.05-3.11,9.14-4.85l-5.76-3.31.05.53c.13,1.25.62,2.75,1.9,3.31l.4.17c3,1.32,6.42-.84,5.63-4.32a5.13,5.13,0,0,0-1.46-2.59l.6,4.64.23-.32-3.31,1.89c3.35,0,4.51-2.23,7.11-3.82l-4.64-6c-1.71,2-4,3.31-5.3,5.71-2,3.74,2.9,7.86,6,4.64a5.13,5.13,0,0,1,1-.92l-2.68,1.18h.39l-2.71-6.53a43.4,43.4,0,0,1-9.8,6,3.84,3.84,0,0,0-1.76,4.33,5,5,0,0,0,1.46,2.4l1.69-6.4a25.11,25.11,0,0,0-4.91,1.8c-3.24,1.68-1.88,7.51,1.93,7.13,10.69-1.09,19.37-7,25.62-15.54a41.32,41.32,0,0,0,7.35-26.84c-.47-4.86-8.13-4.91-7.66,0,1.46,15.07-9.12,33.08-25.31,34.72l1.93,7.13a25.16,25.16,0,0,1,3.08-1c2.57-.75,4-4.48,1.69-6.39l.51,1-1.76,4.19a50.18,50.18,0,0,0,11.36-7.17c2.63-2.09.4-6.65-2.71-6.53a5.71,5.71,0,0,0-4.11,2.06l6,4.63c.88-1.65,2.89-2.71,4.1-4.16,2.63-3.16-.69-8.42-4.64-6-1.09.67-2.6,2.42-3.24,2.78-1.41.79-2.43.66-3.53,2.22a3.86,3.86,0,0,0,.6,4.64l-.53-.84,5.62-4.32-.41-.18,1.89,3.3-.05-.53c-.28-2.83-3-4.83-5.76-3.3-2.44,1.38-4.63,3.16-7.31,4.08l2.95,7c2.16-1.55,4.52-2.43,6.42-4.35,3-3.06-.86-8.3-4.64-6-2.29,1.38-4.71,2.48-7.06,3.75l5.62,2.29-.09-.43-1.76,4.32a4.9,4.9,0,0,0,1.81-1.34c2.36-2.71.16-7.61-3.72-6.39a25,25,0,0,1-3.45,1.27l1.94,7.13c3.88-2.71,8-5,11.58-8.12,3.2-2.83-1.18-8.68-4.64-6-2,1.54-3.89,3-6.53,3.23L268.2,114c2.43-1.44,4.68-3.16,7.05-4.7,3.43-2.23,1.31-8.63-2.95-7-2.74,1.06-5,3.11-7.75,4l3.72,6.39A16.67,16.67,0,0,1,272.2,110c3.42-1.83,1.76-7.09-1.93-7.13a7.8,7.8,0,0,0-6.46,3l4.64-.6a5.57,5.57,0,0,0-5.07-.15l2.95,7c7.74-5.81,15.19-11.91,18.42-21.5,3.38-10.09.62-21.89-5.83-30.14s-18.72-10.61-28.3-6.78c-4.65,1.87-8.94,4-12.31,7.76s-5.23,8-6.76,12.71l7.52,1c1.22-9.61,9.71-13.74,17.88-16.76a3.84,3.84,0,0,0-1-7.51c-2-.14-3.5.88-5.42.94l3.67,2.83L254,54.3,253,58a5.26,5.26,0,0,0,1.38-2.49,3.87,3.87,0,0,0-4.7-4.71,22.05,22.05,0,0,0-5.39,2.28l4.64,6c2-1.94,5.37-2.18,6.29-5,.79-2.49-1.32-4.71-3.69-4.84h-.08L253.77,51l-.2-.28-2.28,5.62a4.69,4.69,0,0,1,1.41-.47c4.79-1.1,2.76-8.48-2-7.38a26,26,0,0,0-14.64,9.42c-3,3.79,1.7,8.85,5.42,5.41,1.06-1,2.17-1.89,3.28-2.81l-6.39-1.6.21.54.38-3-.08.33c-1,1.19-1.67,3.22-.6,4.64l.16.2c1.2,1.58,3.33,2.61,5.23,1.37l-1.13.32-3.34-5.81c-2.19,3-4.59,5.53-6.12,8.93l2.29-1.76-.47.11,3,.39-.47-.34c-1.91-1.4-5.19,0-5.62,2.28-.39,2-1.63,3.26-1.55,5.48l1.12-2.7a7.73,7.73,0,0,0-.24,10.35L230,77.56c-.34,3.22.3,6.33.85,9.48l4.71-4.7.2.15c-3.09-1.37-6.32.87-5.63,4.32s2.7,5.9,4.39,8.91l4.32-5.62-.73-.33c-3.1-1.72-7.61,2-5.23,5.24a27.44,27.44,0,0,0,6,5.88l1.93-7.13c-1.53-.15-2.73-2.17-3.51-3.29-2-2.81-7.44-2.19-7.13,1.94.18,2.4,1.16,3.89,2.41,5.93l6-4.64a5.49,5.49,0,0,1-2-2.52c-1.1-2-4.45-2.65-6-.78l1-.51,3.72,1h0l1,3.73c.52-1.86.2-2.71-.48-4.37-1.54-3.81-7.43-3.59-7.51,1a8.68,8.68,0,0,0,1,4.26l-.39-3h0a3.85,3.85,0,0,0,2.77,4.71,4.08,4.08,0,0,0,.92.13h0l-3.31-1.9a11,11,0,0,1,1.14,2.11c1.15,2.45,5.5,2.56,6.61,0a5.3,5.3,0,0,0,.38-3.65l-7,3c2.24,4.19,5.59,6.71,9.85,8.66,2.58,1.19,5.73-.19,5.76-3.3a4.27,4.27,0,0,0-2.44-3.89l1.76,2.29-.17-.59-5.62,4.32a18.52,18.52,0,0,0,5.79,2c3,.42,4.4,1.7,6.37,4.18l-1.11-2.69c.37,5.85-6.66,4.78-10,2.41-.65-.46-1.27-1-1.91-1.43-2.85-2.15.5.71-.74-.56-1.5-1.54-3.13-3-4.75-4.48a33.08,33.08,0,0,1-8.41-12.58l-.67.48a2.94,2.94,0,0,0,.45-1.43c-.16-.78-.27-1.63-.45-2.44a33.32,33.32,0,0,1-.42-7.46L219,84.09l.15,0-2.68-2.67a34.84,34.84,0,0,1,.42,4.34c.49,4.79,7.74,5,7.65,0-.12-7.23,1-14.32,4.65-20.64l-7-3c-.09.31-.17.62-.23.94-.75,3.52,3.66,6.7,6.4,3.72a7.89,7.89,0,0,0,1.52-2.19l-7.13-1.93c.15,1.15-.64,2.76-.7,4-.19,4,5.14,4.87,7.13,1.93a11.48,11.48,0,0,0,1.34-2.75l-7,.91.35.73a3.88,3.88,0,0,0,4.32,1.75,7.27,7.27,0,0,0,2-.87l-5.64-4.32c-.88,3.42-2.35,6.38-2.71,10-.48,4.62,6.07,4.7,7.51,1,1-2.67,1.55-6,3.48-8.19l-6-4.64a25.78,25.78,0,0,1-1.65,3.06,3.72,3.72,0,0,0,0,3.86l.45.59-.38-3a8.4,8.4,0,0,1-.46,1.53c-1.35,3.86,3.76,6.08,6.4,3.73,1.29-1.15,1.46-2.91,2.58-4l-6-4.64.13-.3c-3.65,3.38,1.78,8.8,5.35,5.43,2-1.86,3.81-4.42,5.59-6.46,1.49-1.71,2.39-2.74,1.75-5.25l-3.69,4.84c3.36-.28,5-2.8,7.9-4.11,3.39-1.53,8.35-2.18,9.82-5.95.63-1.62-.44-3.45-1.76-4.32l-.4-.27,1.79,2.29v-.21l-5.62,4.33.28.2a3.76,3.76,0,0,0,3.86,0c8-4.51,22.49,2.46,27.45,9.2A3.83,3.83,0,0,0,286.78,59c-2.28-5.17-6.69-7.93-11-11.35L272.06,54c2.5,1,4.78,2.48,7.28,3.51,1.6.66,3.47-.46,4.32-1.76v0l-4.32,1.76.22,0a3.89,3.89,0,0,0,4.72-2.83,4.14,4.14,0,0,0,.12-.86c.16-2.16-1.28-3.33-2.85-4.48-1.94-1.41-5.14,0-5.62,2.29l-.06.31a3.91,3.91,0,0,0,1.76,4.32l-.58-.56,4.33-5.62-.6-.18,2.29,1.75c-.63-.81-1.25-1.62-1.9-2.41l-3.73,6.4c4,.65,6.62,5.3,8.35,8.44a41.05,41.05,0,0,1,4.58,16.07c.45,4.86,8.11,4.91,7.66,0Z" transform="translate(-23.26 -40.1)"/><path class="cls-1" d="M273.2,107.07c.15-.14.29-.28.43-.43l-.77.6c.14-.1.27-.21.4-.32s.28-.2.41-.31a4.26,4.26,0,0,0,1.13-2.72l-.14-1a2.77,2.77,0,0,0-.68-1.3,1.87,1.87,0,0,0-.69-.68,2.88,2.88,0,0,0-1.3-.69l-1-.14a4.76,4.76,0,0,0-3,1.3l-.07.07-.6.78h0a3.07,3.07,0,0,0-.45,1.09,2.9,2.9,0,0,0-.07,1.52,2.82,2.82,0,0,0,.46,1.43,2.93,2.93,0,0,0,1,1.07,2.77,2.77,0,0,0,1.3.68l1,.14a3.85,3.85,0,0,0,1.93-.52l.78-.6a3.89,3.89,0,0,0,1-1.69v-.11l-.38.92a.24.24,0,0,1,.06-.11l-.6.77.09-.08-.77.6a.75.75,0,0,1,.29-.16l-4.64-6h0l.77-.6a6.18,6.18,0,0,0-.85.68l-.13.13-.25.24a2.88,2.88,0,0,0-.85,1.26,3.43,3.43,0,0,0,0,3,3.1,3.1,0,0,0,.79,1.23l.78.6a3.83,3.83,0,0,0,1.93.52l1-.14a4,4,0,0,0,1.69-1Z" transform="translate(-23.26 -40.1)"/><path class="cls-1" d="M279.28,47.55h-.17l.91.39h0l1.37,1.37h0l.38.91h0l.14,1v-.08a2.89,2.89,0,0,0-.33-1.47,2.73,2.73,0,0,0-.79-1.23,3.94,3.94,0,0,0-2.71-1.12h-.47l-1,.13a2.78,2.78,0,0,0-1.3.69,3.52,3.52,0,0,0-1.37,2c-.09.42-.12.84-.18,1.26l.14-1a.2.2,0,0,1,0,.11l.39-.92h0l.59-.78h0l.78-.6h-.05l.91-.38h-.06l4.74,3.63a10,10,0,0,0-.17-1.24A4.24,4.24,0,0,0,280,48.37a4.12,4.12,0,0,0-1.81-1.06,4.63,4.63,0,0,0-2.28,0l-.91.39a2.88,2.88,0,0,0-1.08,1,1.74,1.74,0,0,0-.49.85,2.79,2.79,0,0,0-.33,1.47,4.21,4.21,0,0,0,1.13,3.2,4.34,4.34,0,0,0,1.4.91,3.54,3.54,0,0,0,.57.22l1,.14h.08a5.4,5.4,0,0,0,2.45-.65,2,2,0,0,0,.25-.14,6.69,6.69,0,0,0,1-.75,4,4,0,0,0,1.12-2.71A3.91,3.91,0,0,0,281,48.53a3.84,3.84,0,0,0-2.71-1.12,3.94,3.94,0,0,0-2.71,1.12l-.11.11.77-.6a1.62,1.62,0,0,1-.36.21l.91-.38-.33.09,1-.13h-.21l1,.14h-.12l.91.39-.1-.06.77.6-.05-.06.59.78-.06-.11.38.91a.38.38,0,0,1,0-.15l.13,1a1.13,1.13,0,0,1,0-.26l-2.81,3.69h.09l-1,.14h.13l-1-.14h0l-.92-.39h0l-.78-.59a.08.08,0,0,1,.07.06l-.6-.77h0l-.39-.91a.66.66,0,0,1,.06.2l-.14-1v.11a3.69,3.69,0,0,0,.52,1.94,3,3,0,0,0,1,1.07,2.86,2.86,0,0,0,1.3.68,3.77,3.77,0,0,0,2,0,3.94,3.94,0,0,0,1.79-1,4.13,4.13,0,0,0,.66-.85A5.3,5.3,0,0,0,281.2,51l-.14,1V52l-3.69,2.81h.47L274.2,51a1,1,0,0,0,.06.58,3.7,3.7,0,0,0,.07.57,4.19,4.19,0,0,0,1,1.73,3.94,3.94,0,0,0,1.87,1,4.23,4.23,0,0,0,2.95-.39,3.81,3.81,0,0,0,1.38-5.21v0l-.59-.78a3.79,3.79,0,0,0-1.69-1Z" transform="translate(-23.26 -40.1)"/><path class="cls-1" d="M233.52,49.66a.81.81,0,0,1-.33.11l1-.13H234l1,.14a4.41,4.41,0,0,0-3.26.42,4.09,4.09,0,0,0-1.82,4.43v-2c-.1.51.48-1.21.16-.44-.09.22.69-.76.34-.45l.59-.45c.76-.25,1-.34.61-.26l1-.14h-.11l1,.14c.71.37.9.45.57.23a3.83,3.83,0,0,0-2.94-.39,4.36,4.36,0,0,0-2.29,1.76A6,6,0,0,0,228,57.7a3.9,3.9,0,0,0,4.71,2.67,5.91,5.91,0,0,0,3.69-2.92c.18-.33.33-.69.5-1s.2-.32.29-.49c.18-.35-.59.76-.35.46s.68-.41-.4.3a3.83,3.83,0,0,0-3.86-6.61,6.88,6.88,0,0,0-2.4,2.78c-.15.32-.34.62-.49.93.47-.58.59-.73.35-.45s-.11.15.47-.33c-.78.35.88-.26.25-.11l4.7,2.67-.09-.41.14,1a2.26,2.26,0,0,1,0-.52l-.13,1a1.33,1.33,0,0,1,.06-.3c-.3.64-.38.82-.23.55a3.53,3.53,0,0,1,.35-.52l-5.24,1.37a4.48,4.48,0,0,0,5.61-.76,4.94,4.94,0,0,0,1.43-4.5l-.39,3,.07-.09-1.37,1.37-.78.32-1,.14h.08l-1-.14a4.6,4.6,0,0,0,2.7-.09,4.24,4.24,0,0,0,2.28-1.75,4,4,0,0,0,.39-2.95A3.83,3.83,0,0,0,236.53,50a3.64,3.64,0,0,0-3-.39Z" transform="translate(-23.26 -40.1)"/><path class="cls-1" d="M273.37,106.44l.42-.42-.77.6a5.56,5.56,0,0,0,.81-.64,2.84,2.84,0,0,0,.79-1.23,2.91,2.91,0,0,0,.33-1.47l-.13-1a2.88,2.88,0,0,0-.69-1.3,1.9,1.9,0,0,0-.69-.69,2.88,2.88,0,0,0-1.3-.69l-1-.13a3.69,3.69,0,0,0-1.94.52,4.27,4.27,0,0,0-1.06.78,4.08,4.08,0,0,0-1.15,2,2.94,2.94,0,0,0-.07,1.53,2.8,2.8,0,0,0,.45,1.42,2.93,2.93,0,0,0,1,1.07,3,3,0,0,0,1.3.69l1,.13a3.85,3.85,0,0,0,1.93-.52l.77-.6a3.79,3.79,0,0,0,1-1.69v-.1l-.39.92.06-.11-.59.78.09-.1-.77.6a.92.92,0,0,1,.27-.16l-4.64-6h0l.77-.59a5.89,5.89,0,0,0-1,.79l-.24.24a3,3,0,0,0-.79,1.23,2.8,2.8,0,0,0-.33,1.48,4.25,4.25,0,0,0,1.12,2.7l.78.6a3.83,3.83,0,0,0,1.93.52l1-.13a3.8,3.8,0,0,0,1.68-1Z" transform="translate(-23.26 -40.1)"/><path class="cls-1" d="M237.46,77.59c2.87-7.57,8.71-12.3,14.91-17,3.15-2.36,1.51-8.58-3-7-.49.16-1,.35-1.46.55l3,.38-.66-.31c-1.4-.67-3.54-.78-4.64.6l-1,.76,1.93,7.13A26.07,26.07,0,0,0,252,58.89c2.74-2.58-.09-7.58-3.72-6.4-2.88.93-5,2.95-7.75,4l2.95,7c2.36-1.55,4.61-3.26,7-4.71,3.08-1.84,2-7.44-1.93-7.13a18.54,18.54,0,0,0-10.32,4.24l4.63,6c3.07-2.72,6.7-4.6,10-6.93,2.82-2,2.18-7.47-1.93-7.13-2,.17-3.56,1-5.5,1.55l3.73,6.4.26-.16c1.57-.71,2.12-2.78,1.76-4.32l-.1-.43a3.86,3.86,0,0,0-4.78-2.64,3.94,3.94,0,0,0-.84.36c-2.34,1.27-4.77,2.37-7,3.76l4.64,6c1.37-1.4,3.29-2,4.86-3.17,3.26-2.34,1.47-8.51-3-7-3.38,1.17-6,3.12-9.14,4.86l5.76,3.3-.06-.53a4.07,4.07,0,0,0-2.81-3.69l-.41-.18c-2.85-1.17-5.34,2.17-4.71,4.71a5.25,5.25,0,0,0,1.45,2.54l-.6-4.64-.26.34,3.3-1.9c-3.34,0-4.51,2.22-7.1,3.82l4.63,6c1.71-2,4-3.31,5.31-5.71,2-3.74-2.91-7.86-6-4.64a5.13,5.13,0,0,1-1,.92l2.71-1.12h-.39l2.68,6.63a42.82,42.82,0,0,1,9.8-6,3.82,3.82,0,0,0,1.76-4.32,5.23,5.23,0,0,0-1.45-2.39l-1.69,6.4a25.93,25.93,0,0,0,4.9-1.8c3.24-1.69,1.89-7.51-1.93-7.13A34,34,0,0,0,227.57,55a45,45,0,0,0-6.64,10.06c-1.78,3.56-2.24,6.63-3.29,10.47a3.87,3.87,0,0,0,2.76,4.72,4.17,4.17,0,0,0,.93.13h12.44c4.93,0,4.94-7.66,0-7.66H221.33L225,77.61c.46-1.67.56-3.37,1-5a15.13,15.13,0,0,1,1.67-3.43,35.5,35.5,0,0,1,5.33-8.7c4.07-4.66,10.48-8.52,16.75-9.15l-1.93-7.13a23.55,23.55,0,0,1-3.08,1c-2.61.75-3.93,4.45-1.69,6.39l-.51-1,1.76-4.32A50.93,50.93,0,0,0,233,53.45c-2.66,2.11-.38,6.61,2.71,6.54a5.76,5.76,0,0,0,4.08-2.1l-6-4.64c-.89,1.65-2.9,2.71-4.11,4.16-2.63,3.15.7,8.44,4.64,6,1.09-.67,2.59-2.41,3.24-2.77,1.42-.79,2.44-.66,3.53-2.23a3.86,3.86,0,0,0-.6-4.63l.52.84-4.71,4.7.42.18-2.82-3.61.06.53c.31,2.82,3,4.84,5.76,3.3,2.44-1.37,4.63-3.16,7.31-4.08l-3-7c-2.15,1.55-4.52,2.44-6.42,4.36-3,3,.87,8.31,4.64,6,2.28-1.39,4.71-2.49,7.06-3.77L243.69,53l.1.43,1.76-4.32a4.57,4.57,0,0,0-1.81,1.35c-2.34,2.71-.18,7.62,3.72,6.39a25.2,25.2,0,0,1,3.46-1.28L249,48.39c-3.9,2.71-8,5-11.6,8.12-3.2,2.83,1.17,8.69,4.64,6,2-1.53,3.89-3,6.53-3.24l-1.94-7.13c-2.43,1.45-4.67,3.16-7,4.71-3.42,2.23-1.31,8.63,3,7,2.74-1.05,5-3.1,7.75-4l-3.72-6.4a17.7,17.7,0,0,1-3.93,2.7c-3.42,1.84-1.77,7.09,1.93,7.13a7.81,7.81,0,0,0,6.46-3l-4.63.6a5.66,5.66,0,0,0,5.07.15l-3-7c-7.94,6-14.78,11.9-18.43,21.52C228.34,80.16,235.73,82.15,237.46,77.59Z" transform="translate(-23.26 -40.1)"/><polygon class="cls-2" points="6.51 3.91 6.51 16.09 36.57 16.09 4.1 57.19 4.1 68.2 56.07 68.2 56.07 55.84 22.58 55.84 55.17 14.92 55.17 3.91 6.51 3.91"/><path class="cls-2" d="M95.69,86.89l-.14,2.25A10.94,10.94,0,0,0,98,96.45a8.35,8.35,0,0,0,6.76,2.93,9.09,9.09,0,0,0,5.85-2.14,6.64,6.64,0,0,0,2.61-5.35l12.7.91c0,1.19-.8,3.12-2.36,5.81a23,23,0,0,1-7.14,7.31q-4.8,3.27-12.1,3.27a24.79,24.79,0,0,1-12.36-3,20.71,20.71,0,0,1-8.24-8.53,26.31,26.31,0,0,1-2.91-12.6A29.56,29.56,0,0,1,83.56,72.2a21.52,21.52,0,0,1,7.94-9.09,22.42,22.42,0,0,1,12.38-3.33A23.24,23.24,0,0,1,113.82,62a19.57,19.57,0,0,1,7.64,6.12q4.74,6.84,4.74,18.8Zm16.84-8.19q-.54-10-8-10-8.15,0-9,10Z" transform="translate(-23.26 -40.1)"/><path class="cls-2" d="M143.33,60.65v8h.19a16,16,0,0,1,5.34-6.76,14.64,14.64,0,0,1,8.34-2.1c5.32,0,9.24,1.72,11.79,5.18,1.79,2.38,2.67,7,2.67,13.86V108.3H157.81V82.69c0-4.11-.39-7.13-1.15-9.09s-2.48-3-5.11-3a6.1,6.1,0,0,0-5.82,3.56,18.31,18.31,0,0,0-1.63,8.48V108.3H130.25V60.65Z" transform="translate(-23.26 -40.1)"/><path class="cls-2" d="M205.05,74.94q-1.65-6.41-9.24-6.4c-4.75,0-7.12,1.4-7.12,4.18q0,2.84,4.84,3.79t10.4,1.87a19.47,19.47,0,0,1,9.45,4.1c2.59,2.13,3.88,5.61,3.88,10.48a14.72,14.72,0,0,1-6.4,12.37q-5.62,3.87-14.87,3.88a28.59,28.59,0,0,1-14.08-3.27q-5.86-3.28-7.65-10.73l11.88-1.82q1.4,6.45,10.58,6.44a15.75,15.75,0,0,0,5.6-1c1.82-.71,2.73-1.84,2.73-3.41,0-2.28-1.79-3.63-5.35-4-6.53-.87-11.26-1.81-14.13-2.84a13.73,13.73,0,0,1-6.82-4.9,12.86,12.86,0,0,1-2.55-8q0-8.19,5.89-12.06c3.92-2.58,8.77-3.86,14.5-3.86q14.19,0,18.76,12.35Z" transform="translate(-23.26 -40.1)"/><path class="cls-3" d="M240.74,89.54V75.89h5.65a9.61,9.61,0,0,1,3.11.36,3.08,3.08,0,0,1,1.56,1.31,4,4,0,0,1,.57,2.14,3.75,3.75,0,0,1-.88,2.54,4.22,4.22,0,0,1-2.64,1.26,6.08,6.08,0,0,1,1.44,1.14,13.36,13.36,0,0,1,1.54,2.25l1.62,2.66H249.5l-2-3a17.63,17.63,0,0,0-1.42-2,2,2,0,0,0-.8-.58,4.41,4.41,0,0,0-1.35-.15h-.56v5.69Zm2.68-7.86h2a11.55,11.55,0,0,0,2.42-.16,1.74,1.74,0,0,0,.76-.58,2,2,0,0,0,.27-1,1.58,1.58,0,0,0-.37-1.11,1.52,1.52,0,0,0-1-.53c-.22,0-.87,0-2,0h-2.1Z" transform="translate(-23.26 -40.1)"/><path class="cls-3" d="M265.77,87.89l-1.57,2A8.66,8.66,0,0,1,262,88.32a5.63,5.63,0,0,1-1.73,1.11,5.9,5.9,0,0,1-2.16.35,4.73,4.73,0,0,1-3.75-1.43,3.74,3.74,0,0,1-1-2.55,3.88,3.88,0,0,1,.76-2.35,6,6,0,0,1,2.28-1.82,8.35,8.35,0,0,1-1-1.57,3.38,3.38,0,0,1-.35-1.42,2.68,2.68,0,0,1,1-2.09,4,4,0,0,1,2.76-.86,3.79,3.79,0,0,1,2.7.89,2.91,2.91,0,0,1,1,2.21,2.84,2.84,0,0,1-.48,1.57A6.83,6.83,0,0,1,260.11,82l1.86,2.5a5.73,5.73,0,0,0,.55-1.55l2.32.54c-.17.62-.36,1.23-.59,1.83a4.92,4.92,0,0,1-.56,1,12.11,12.11,0,0,0,1.11.9,7.39,7.39,0,0,0,1,.64m-7.95-4.57a3.23,3.23,0,0,0-1.32,1.11,2.32,2.32,0,0,0-.43,1.3,1.84,1.84,0,0,0,.54,1.38,2,2,0,0,0,1.45.54,3,3,0,0,0,1.15-.25,5.19,5.19,0,0,0,1.21-.8Zm1-2.83.7-.53a1.68,1.68,0,0,0,.75-1.21,1.18,1.18,0,0,0-.36-.85,1.34,1.34,0,0,0-1-.35,1.37,1.37,0,0,0-.95.3,1,1,0,0,0-.35.73,2,2,0,0,0,.58,1.17Z" transform="translate(-23.26 -40.1)"/><path class="cls-3" d="M267.2,75.89h5a9.38,9.38,0,0,1,2.53.26,4.34,4.34,0,0,1,2,1.25A6.26,6.26,0,0,1,278,79.61a10.61,10.61,0,0,1,.44,3.22,9.21,9.21,0,0,1-.41,2.9,6,6,0,0,1-1.43,2.4,5,5,0,0,1-1.89,1.09,8.35,8.35,0,0,1-2.38.29H267.2Zm2.68,2.3v9h2a9,9,0,0,0,1.64-.12,2.52,2.52,0,0,0,1.07-.57,2.92,2.92,0,0,0,.72-1.31,9.58,9.58,0,0,0,.26-2.5,8.63,8.63,0,0,0-.26-2.43,3.2,3.2,0,0,0-.77-1.32,2.51,2.51,0,0,0-1.24-.64,12.56,12.56,0,0,0-2.21-.13Z" transform="translate(-23.26 -40.1)"/><path class="cls-2" d="M312,60.65v8.94h.29q2.67-9.81,10.14-9.8l2.36.14V73.78c-4.76,0-7.9,1.45-9.45,4.35S313,85,313,90.13V108.3H299.2V60.65Z" transform="translate(-23.26 -40.1)"/><path class="cls-4" d="M255.35,45.45c-.25-.15-2-.26-1.88.71.88-.35,1.6.39,1.88-.71" transform="translate(-23.26 -40.1)"/><path class="cls-4" d="M253.2,45.68c-1.19.4-3.8.61-3.54,1.65.84-.88,3-.48,3.54-1.65" transform="translate(-23.26 -40.1)"/><path class="cls-4" d="M252.05,48.5a42.22,42.22,0,0,0,6.38-1.4,12.38,12.38,0,0,0-6.38,1.4" transform="translate(-23.26 -40.1)"/><path class="cls-4" d="M256.07,48.5c.42-.5,2.12.25,2.11-.7-.42.51-2.13-.25-2.11.7" transform="translate(-23.26 -40.1)"/><path class="cls-4" d="M232.73,58.89c2.76-2.38,6.77-6.86,11.07-9.19-2.47.52-3.69,2.28-5.89,3.07-1.32,2.28-4.77,3.71-5.18,6.12" transform="translate(-23.26 -40.1)"/><path class="cls-4" d="M238.38,56.05c.47-1,1.88-.95,2.12-2.12-1,.25-2.41,1.34-2.12,2.12" transform="translate(-23.26 -40.1)"/><path class="cls-4" d="M249.2,56.76c-.66.13-1.6,0-1.41.94a2.19,2.19,0,0,0,1.41-.94" transform="translate(-23.26 -40.1)"/><path class="cls-4" d="M235.79,57.7a15.54,15.54,0,0,0-1.42,1.89c.82-.13,1.8-1.35,1.42-1.89" transform="translate(-23.26 -40.1)"/><path class="cls-4" d="M232,60.05c-.92.13-1.81,1.51-1.42,2.13.46-.71,1-1.41,1.42-2.13" transform="translate(-23.26 -40.1)"/><path class="cls-5" d="M295,80.33c-.88-11.49-5.09-19.78-10.84-25.93-2-.25-3.3-2.51-5-2.35.76.41.59,1.2,1.31,1.64a5.26,5.26,0,0,0,.6.19c.24-.76-1.44-.7-.74-1.13.33.25,1.41.94,1,1.18l-.22,0v0a1.81,1.81,0,0,1-.57-.24c-2.08-.74-4.36-2.53-6.74-3.28C278.05,54,282.29,56,284.13,61A6,6,0,0,0,282,58.89c-.76-.52-1.14-1.52-1.9-2.12A37.62,37.62,0,0,0,262.2,49c-3.91-.62-8.78,0-10.85,1.42,0-.38-.68-.18-.23,0s.5.35.23.69c-3.62,1.27-7.8,3.18-10.6,4.48-.46.43-2,2.73-3.29,2.36,0,.64.39.47,0,.94-2.19.94-4.18,4.84-5.93,6.65a.68.68,0,0,1-.45.42,4.47,4.47,0,0,0,.45-.42h0c-1.62,1-.84,3-2.6,4,.14-.73,1-1.68,0-2.12a23.92,23.92,0,0,0,1.66-3.07c-2.47,2.33-3,6.56-4.47,9.9.13-3.7,1.94-5.74,2.58-9-1,.41-1,1.06-1.41-.23a4.29,4.29,0,0,1-1,1.88c-.35-1.77,1.37-2.71.71-4-.34.45-.34,1.24-.93,1.42-.06-.44.26-.52.22-.94-3.49,5.72-5.48,13.88-5.18,22.63-.19-1.42-.33-6-.7-5.42.07,3.36-.4,7.3.94,9.42-.08.32-.34.46-.24,1A36.65,36.65,0,0,0,235,110c0,.58.37.73.47,1.17,3.67,2,7.37,7.1,13.19,4.72,4,.22,7-3.31,6.37-7.79-2.06-2.73-4.57-5.17-8.26-5.65-1.2,1.08-3.51-.69-4.7-1.17-.32.8,1.29.87.71,1.17-3.75-1.66-6.65-3.4-8.5-7.3-.08.4.36.6,0,.7a10.92,10.92,0,0,0-1.1-2.12h0a2.78,2.78,0,0,1-.47-2.33c.37,1.76,1.11.87.47,2.33h0c.43,0,.45-.33.68-.48a8.18,8.18,0,0,0,2.6,3.31c-.76-1.46-2.18-2.78-1.9-4,1.62,2.29,3.62,5.29,6.87,5.18-1.76-1.32-3.57-2.55-4.72-4.49.34.46,1.15.43,1.65.71-1.32-2.67-3.58-4.42-4-8,.32,0,.34.3.72.23-.42-2.51-1.21-5.86-.72-8.48-1.18-.7-.91-4.43.24-5-.46-1.86,1.39-2.44,1.42-4.47.48.13.46.7.94.23,1.38-3.64,4.08-6,6.13-9-.54-.33-.88.61-.94,0,.27-.29,1.07-1.25.47-1.65-.84.76-2.22,1.7-3.3,2.82a22,22,0,0,1,12.47-8.36,2.07,2.07,0,0,1,.49-.12l-.49.12a5.64,5.64,0,0,0-.92.35c-.2.55,1.87.32,1.28.48a12.06,12.06,0,0,0-5.3,3.3,13.56,13.56,0,0,1,4.48-1.9c.13.75-.8.63-.23,1.19,2.24.27,3.74-1.44,5.43-.95-10.06,3.65-19.59,8.4-20.75,20.5,2.19-7,4.3-10.06,9.19-14.36,3.9-1.7,8.3-4.78,13.91-5.19,6.15-.45,10.92,1.78,15.08,4.23a30.24,30.24,0,0,1,9,23.58c-.53,9.45-6.68,15.94-11.35,20.55-1.69,2.14-4.48,3.16-6.57,4.91,1.06-.18,1.35-1,2.13-.24a3.89,3.89,0,0,1,3.77-1.88,16.39,16.39,0,0,0-4.76,3.32c3.07-.7,5.42-3.36,7.77-4-2.44,1.49-4.52,3.33-7.07,4.72,3.26.1,6.3-2,8.48-3.77-3.23,3.09-7.53,5.13-10.83,7.54,1.31.24,2.9-1.14,4.47-1.41.07.63-1.74.57-.94,1.17,2.29-1.32,4.91-2.33,7.08-3.76-1.33,1.83-4,2.28-5.66,3.76,3.34-.88,5.43-3,8.25-4.47,0,.37,0,.81.46.71.26-.62-1-.83-.23-1.18,1.81.54,3.26-2.49,5.19-3.31-1.23,1.85-4.18,3.21-4.71,5,.29-.33,1.2-1.29,1.41-.94a41.36,41.36,0,0,1-10.61,6.57c-.08.47.32.47.48.72-1.32.51-3,.6-4,1.41,4.42-.22,7-2.23,10.84-3.06a27,27,0,0,1,6.36-4.48c2.8-3.68,7.12-7.15,8.25-12.26,2-1.8,2-4.48,2.36-6.59s1.49-4.77,1.65-7.08a34.44,34.44,0,0,0-.24-5.18" transform="translate(-23.26 -40.1)"/><path class="cls-4" d="M271.14,104.61c.15-.14.3-.29.44-.44h0c-.22.1-.43.2-.48.47" transform="translate(-23.26 -40.1)"/><path class="cls-4" d="M278.92,51.34c-.14,0-.28,0-.23-.24h-.49c-.05.18,0,.47-.23.47,0-.28-.06-.56-.47-.47-.12,1.07,1.08.62,1.41.24" transform="translate(-23.26 -40.1)"/><path class="cls-4" d="M235.09,53.46c-.59.3-.74-.12-.94.23.06.06-.66,1.59-1.42.94a2.06,2.06,0,0,0-.47,2.13c1.69-.33,1.55-2.53,2.83-3.3" transform="translate(-23.26 -40.1)"/><path class="cls-4" d="M271.31,104l.42-.43h0c-.2.11-.41.21-.46.47" transform="translate(-23.26 -40.1)"/><path class="cls-5" d="M234.32,76.74c2.12-6.22,6.57-10.86,10.15-14.39,1.68-2.14,4.48-3.16,6.56-4.9-1.07.16-1.34,1-2.13.23a4,4,0,0,1-3.77,1.89,16.7,16.7,0,0,0,4.72-3.31c-3.07.72-5.43,3.38-7.77,4,2.43-1.49,4.52-3.34,7.06-4.72-3.24-.09-6.3,2-8.48,3.77,3.23-3.09,7.54-5.13,10.85-7.54-1.32-.23-2.92,1.14-4.49,1.42-.06-.64,1.75-.59,1-1.19-2.3,1.33-4.91,2.33-7.08,3.78,1.33-1.83,4-2.29,5.66-3.78-3.35.9-5.42,3.06-8.25,4.48,0-.36,0-.82-.47-.7-.26.59,1,.83.24,1.18-1.81-.55-3.27,2.47-5.19,3.3,1.23-1.84,4.18-3.22,4.72-4.95-.3.35-1.22,1.28-1.42.93a41.46,41.46,0,0,1,10.61-6.6c.06-.45-.33-.45-.47-.7,1.31-.49,3-.6,4-1.41-4.42.21-7,2.23-10.84,3.06a27.93,27.93,0,0,1-6.35,4.48c-2.81,3.69-7.13,7.15-8.26,12.25-2,1.81-2,4.49-2.36,6.61a24.61,24.61,0,0,1-.67,2.79Z" transform="translate(-23.26 -40.1)"/></svg>