<?xml version="1.0" encoding="utf-8"?>
<!-- Generator: Adobe Illustrator 25.0.1, SVG Export Plug-In . SVG Version: 6.00 Build 0)  -->
<svg version="1.1" id="Layer_1" xmlns="http://www.w3.org/2000/svg" xmlns:xlink="http://www.w3.org/1999/xlink" x="0px" y="0px"
	 viewBox="0 0 512 512" style="enable-background:new 0 0 512 512;" xml:space="preserve">
<style type="text/css">
	.st0{fill:#F7F7F7;}
</style>
<rect class="st0" width="520.9" height="520.9"/>
<g id="PL_x5F_Cart_1_">
	<path d="M502.7,443.5c0,16.3-14.9,29.5-33.3,29.5c-18.4,0-33.3-13.2-33.3-29.5c0-16.3,14.9-29.5,33.3-29.5
		C487.7,414,502.7,427.2,502.7,443.5z"/>
	<path d="M118.7,443.5c0,16.3-14.9,29.5-33.3,29.5S52,459.8,52,443.5c0-16.3,14.9-29.5,33.3-29.5S118.7,427.2,118.7,443.5z"/>
	<path d="M85.2,65.8L70.4,28H0v20.1h55.6l76.7,251.8c-43.2,13.3-79.9,44.7-87.1,86.3c-2.5,13.8-2.5,19.6-2.5,19.6H512V386H68.4
		c6.3-37.3,51.7-68.6,98.8-73.8c47.1-5.2,324.4-40.4,324.4-40.4L512,65.8H85.2z"/>
</g>
</svg>
