<?xml version="1.0" encoding="utf-8"?>
<!-- Generator: Adobe Illustrator 25.0.1, SVG Export Plug-In . SVG Version: 6.00 Build 0)  -->
<svg version="1.1" id="Capa_1" xmlns="http://www.w3.org/2000/svg" xmlns:xlink="http://www.w3.org/1999/xlink" x="0px" y="0px"
	 viewBox="0 0 512.2 512.2" style="enable-background:new 0 0 512.2 512.2;" xml:space="preserve">
<style type="text/css">
	.st0{fill:#0097F4;}
	.st1{fill:#F0F5F7;}
	.st2{fill:#EDF2F4;}
	.st3{font-family:'Arial-Black';}
	.st4{font-size:123.4743px;}
</style>
<rect x="0" class="st0" width="512.2" height="512.2"/>
<g>
	<g>
		<path class="st1" d="M251.6,48.5L129.9,170.6c-1.7,1.7-2.2,4.3-1.3,6.6c1,2.3,3.2,3.8,5.6,3.8h67.1v152.5c0,3.4,2.7,6.1,6.1,6.1
			H305c3.4,0,6.1-2.7,6.1-6.1V181H378c2.5,0,4.7-1.5,5.6-3.8c0.3-0.8,0.5-1.5,0.5-2.3c0-1.6-0.6-3.1-1.8-4.3L260.2,48.5
			c-1.1-1.1-2.7-1.8-4.3-1.8C254.3,46.7,252.7,47.3,251.6,48.5z"/>
	</g>
</g>
<text transform="matrix(1 0 0 1 129.0571 472.6615)" class="st2 st3 st4">TOP</text>
<rect x="1042.1" y="472.7" style="fill:none;" width="2.2" height="0"/>
</svg>
